<svg width="18" height="23" viewBox="0 0 18 23" fill="none" xmlns="http://www.w3.org/2000/svg">
<path d="M17.7943 16.6633C17.7113 15.451 17.3844 14.2689 16.8339 13.19C16.1462 11.9115 15.1125 11.1549 13.7663 10.9546C13.5065 10.9004 13.2386 10.9008 12.979 10.9558C12.7194 11.0107 12.4736 11.1191 12.2567 11.2743C12.0827 11.4064 11.896 11.5236 11.6989 11.6472L11.5647 11.7303C9.90403 12.7766 8.28744 12.7766 6.62258 11.7303C6.51565 11.6642 6.4129 11.5939 6.30387 11.5172C6.11935 11.3936 5.92849 11.2657 5.7293 11.1549C5.51432 11.0189 5.27084 10.9364 5.01856 10.9142C4.33056 10.9012 3.65062 11.067 3.04329 11.3958C2.15006 11.8816 1.51477 12.6594 1.04089 13.8421C0.476856 15.2549 0.239926 16.8254 0.315411 18.6537C0.328272 19.4195 0.588853 20.1597 1.05687 20.7601C1.52488 21.3605 2.17432 21.7877 2.90497 21.9757C3.07481 22.0269 3.24878 22.0588 3.41443 22.0929C3.48991 22.1057 3.56546 22.1206 3.63885 22.1376H14.5232H14.5526L14.605 22.1207C14.6185 22.1142 14.6326 22.1091 14.647 22.1057C16.5551 21.8926 17.8508 20.4499 17.8739 18.5151C17.8803 17.8968 17.8538 17.2787 17.7943 16.6633ZM10.6295 20.499H9.09051H8.88083H4.18823C3.72186 20.5236 3.25791 20.4159 2.84835 20.1879C2.56705 20.0275 2.33381 19.7926 2.17355 19.5081C2.01329 19.2237 1.93195 18.9003 1.93828 18.5726C1.89844 16.9617 2.08301 15.681 2.51704 14.5452C2.69412 14.0534 2.96969 13.6042 3.32638 13.2262C3.74107 12.8117 4.29847 12.5778 4.88014 12.5741C4.91779 12.5892 4.95361 12.6085 4.98702 12.6317C5.13799 12.7233 5.28485 12.8213 5.43372 12.9172C5.73127 13.1203 6.03993 13.3061 6.35833 13.4734C8.41529 14.5027 10.4681 14.379 12.46 13.1111L12.7452 12.9236C12.9003 12.8214 13.0576 12.7105 13.2169 12.6231C13.2666 12.5961 13.3221 12.5822 13.3784 12.5827C14.2716 12.6317 14.9426 13.1027 15.427 14.019C15.817 14.7499 16.0456 15.5852 16.1714 16.7316C16.2272 17.2653 16.2552 17.8016 16.2552 18.3383C16.2657 19.6701 15.4941 20.4691 14.192 20.4904C13.0052 20.5054 11.7974 20.5011 10.6295 20.499Z" fill="#454545"/>
<path d="M9.0526 10.8534H9.09536C9.75431 10.8527 10.4066 10.7221 11.0152 10.4692C11.6237 10.2163 12.1765 9.84591 12.642 9.3792C13.1074 8.91249 13.4766 8.35855 13.7281 7.74912C13.9797 7.1397 14.1087 6.48668 14.1081 5.82732C14.1074 5.16796 13.977 4.51522 13.7242 3.90631C13.4714 3.2974 13.1012 2.74429 12.6348 2.27852C12.1684 1.81276 11.6149 1.44342 11.0058 1.19171C10.3968 0.94 9.74407 0.810857 9.08512 0.811526C8.08848 0.811308 7.11441 1.10802 6.28697 1.66393C5.45954 2.21983 4.8163 3.00975 4.43924 3.93288C4.06218 4.85601 3.96833 5.8705 4.16977 6.84717C4.3712 7.82385 4.85875 8.71846 5.57023 9.41681C6.49525 10.338 7.74755 10.8545 9.0526 10.8534ZM5.64561 5.8304C5.64399 5.37825 5.73176 4.9302 5.90394 4.51216C6.07612 4.09411 6.32929 3.71432 6.64882 3.39459C6.96835 3.07487 7.3479 2.82154 7.76569 2.64925C8.18349 2.47697 8.63125 2.38914 9.08313 2.39076C9.99536 2.39076 10.8702 2.75333 11.5153 3.39877C12.1603 4.04422 12.5227 4.9196 12.5227 5.83239C12.5227 6.74519 12.1603 7.62067 11.5153 8.26611C10.8702 8.91156 9.99536 9.27413 9.08313 9.27413C8.17139 9.27197 7.29771 8.90831 6.6534 8.26283C6.00908 7.61735 5.64668 6.74271 5.64561 5.8304Z" fill="#454545"/>
</svg>
